<svg id="Capa_1" enable-background="new 0 0 512 512" height="512" viewBox="0 0 512 512" width="512" xmlns="http://www.w3.org/2000/svg"><g><path d="m240.967 442.24v69.74c-40.605-2.172-97.113-12.831-157.655-47.481-40.945-23.43-64.345-46.74-65.316-47.721-5.455-5.485-5.855-14.212-.921-20.167l16.794-20.277c-30.552-26.455-29.176-25.192-30.005-26.093 44.879-1.681 138.519-.731 199.271 30.977-2.102 6.325-2.312 13.271-.29 19.887 4.784 15.593 19.39 35.097 38.122 41.135z"/><path d="m280.341 392.808c-1.722 5.204-5.415 10.669-10.979 16.264-7.328 7.328-19.332 7.342-26.663-.01-5.675-5.685-9.528-11.48-11.14-16.754-.36-1.171.22-2.612 1.341-3.363 13.805-9.149 31.828-9.27 45.759-.32 1.512.97 2.192 2.651 1.682 4.183z"/><path d="m469.834 259.423c-16.744-59.601-49.573-106.812-97.584-140.32-69.768-48.728-162.678-48.727-232.54 0-49.284 34.395-81.358 82.701-97.584 140.32-6.656 23.68-16.604 43.948-29.655 60.432 52.605-1.331 149.058 2.082 212.512 39.154 19.093-9.15 41.987-9.611 62.083 0 63.424-37.052 159.817-40.485 212.432-39.154-13.05-16.474-23.009-36.742-29.664-60.432zm-310.477 16.815c-8.287 0-15.003-6.726-15.003-15.013s6.716-15.013 15.003-15.013c8.297 0 15.013 6.726 15.013 15.013s-6.716 15.013-15.013 15.013zm193.346 0c-8.297 0-15.013-6.726-15.013-15.013s6.716-15.013 15.013-15.013c8.287 0 15.003 6.726 15.003 15.013s-6.716 15.013-15.003 15.013z"/><path d="m478.171 376.303 16.824 20.307c4.934 5.955 4.534 14.683-.921 20.167-.971.981-24.371 24.291-65.316 47.721-35.2 20.147-90.257 43.988-157.765 47.501v-69.73c19.269-6.152 33.134-25.691 37.853-40.025 2.312-6.986 2.182-14.312-.02-20.968 60.652-31.697 154.372-32.688 199.311-31.027-.82.893.606-.412-29.966 26.054z"/><g><path d="m177.242 66.227c-49.528 17.483-97.841 55.74-130.151 107.523-11.84-48.392-18.146-111.136 5.785-164.842 2.932-6.586 10.128-10.159 17.144-8.507 2.993.7 62.184 15.143 107.222 65.826z"/></g><g><path d="m473.327 127.54c-1.892 16.324-4.924 31.937-8.387 46.15-29.497-47.344-75.814-87.981-130.132-107.452 45.048-50.684 104.239-65.137 107.232-65.837 7.016-1.651 14.212 1.922 17.145 8.507 14.702 32.998 19.466 72.913 14.142 118.632z"/></g></g></svg>